<svg xmlns="http://www.w3.org/2000/svg" width="326" height="155" viewBox="0 0 326 155" version="1.1"><path d="M 142 71.500 L 142 118 148 118 L 154 118 154 99 L 154 80 166.822 80 C 181.666 80, 186.611 78.737, 192.923 73.334 C 199.224 67.941, 202.311 61.070, 202.323 52.410 C 202.336 43.603, 199.730 37.692, 193.361 32.086 C 186.246 25.824, 182.463 25, 160.822 25 L 142 25 142 71.500 M 154 52.500 L 154 69 163.750 68.976 C 175.870 68.945, 181.685 67.657, 185.339 64.192 C 193.788 56.182, 192.797 44.823, 183.078 38.274 C 180.004 36.202, 178.564 36, 166.852 36 L 154 36 154 52.500 M 222.410 53.072 C 217.385 54.279, 208.178 59.744, 206.297 62.636 C 204.992 64.643, 205.206 64.955, 209.849 67.812 L 214.790 70.852 217.145 68.331 C 220.728 64.496, 224.693 62.839, 230.410 62.787 C 236.402 62.733, 240.676 64.637, 244.341 68.994 C 246.757 71.865, 248.866 78.467, 247.730 79.603 C 247.450 79.883, 244.916 79.359, 242.099 78.438 C 234.954 76.101, 220.111 76.789, 214.500 79.718 C 201.442 86.533, 199.067 102.120, 209.498 112.551 C 219.306 122.358, 236.840 122.110, 245.310 112.044 C 246.718 110.370, 248.125 109, 248.435 109 C 248.746 109, 249 111.025, 249 113.500 L 249 118 254.605 118 L 260.211 118 259.804 94.750 C 259.422 72.942, 259.254 71.205, 257.085 66.744 C 252.900 58.132, 244.562 53.150, 233.218 52.484 C 229.523 52.267, 224.660 52.531, 222.410 53.072 M 266.667 65.250 C 281.288 98.170, 288 113.584, 288 114.237 C 288 114.643, 284.850 121.768, 281 130.070 C 277.150 138.372, 274 145.353, 274 145.582 C 274 145.812, 276.587 145.989, 279.750 145.976 L 285.500 145.952 302.500 106.809 C 311.850 85.281, 320.728 64.795, 322.228 61.286 L 324.956 54.906 318.834 55.203 L 312.712 55.500 303.696 77.750 C 298.737 89.988, 294.405 100, 294.068 100 C 293.732 100, 289.251 89.875, 284.111 77.500 L 274.764 55 268.439 55 L 262.114 55 266.667 65.250 M 225.354 87.092 C 223.624 87.593, 220.837 89.284, 219.161 90.849 C 207.624 101.626, 223.893 115.113, 238.269 106.688 C 243.529 103.605, 246.330 100.108, 247.793 94.795 C 249.016 90.357, 248.257 89.484, 241.388 87.416 C 236.144 85.838, 230.103 85.716, 225.354 87.092" stroke="none" fill="#5f6368" fill-rule="evenodd"/><path d="M 4.023 51.667 C -0.314 63.261, -0.324 77.713, 3.998 89.266 L 6.124 94.947 14.899 88.025 L 23.675 81.103 22.656 76.130 C 21.968 72.770, 21.965 69.350, 22.647 65.586 L 23.657 60.014 16.181 54.288 C 12.069 51.139, 8.129 47.986, 7.424 47.282 C 6.383 46.240, 5.747 47.061, 4.023 51.667" stroke="none" fill="#fbbc04" fill-rule="evenodd"/><path d="M 0.083 31.750 C 0.162 61.670, 0.250 63.154, 1.616 57.503 C 5.855 39.969, 22.599 23.205, 40.542 18.531 C 48.945 16.342, 62.323 16.547, 70.217 18.985 C 76.391 20.892, 87.954 27.499, 89.503 30.004 C 89.970 30.760, 87.353 34.119, 82.466 39.035 L 74.685 46.861 71.344 44.314 C 66.614 40.706, 61.442 39.095, 54.428 39.044 C 41.885 38.953, 31.698 45.597, 26.050 57.551 C 18.628 73.259, 25.194 92.037, 40.786 99.694 C 45.644 102.080, 47.698 102.493, 54.500 102.451 C 66.426 102.378, 75.676 97.476, 80.044 88.914 C 83.595 81.954, 83.675 82, 68 82 L 54 82 54 71.483 L 54 60.966 79.750 61.233 L 105.500 61.500 105.791 70.371 C 106.346 87.320, 100.984 101.111, 89.798 111.507 C 73.854 126.323, 49.294 129.095, 28.900 118.378 C 15.810 111.500, 5.061 97.718, 1.584 83.355 C 0.281 77.971, 0.160 80.620, 0.083 116.253 L 0 155.006 163.250 154.753 L 326.500 154.500 326.690 77.250 L 326.880 0 163.440 0 L 0 0 0.083 31.750 M 0.445 32 C 0.445 49.325, 0.582 56.412, 0.748 47.750 C 0.915 39.087, 0.915 24.912, 0.748 16.250 C 0.582 7.587, 0.445 14.675, 0.445 32 M 141 71 L 141 118 147.500 118 L 154 118 154 99.500 L 154 81 165.818 81 C 180.044 81, 185.946 79.482, 192.808 74.057 C 200.016 68.360, 202.500 62.707, 202.500 52 C 202.500 44.507, 202.171 42.940, 199.722 38.775 C 198.195 36.176, 194.864 32.460, 192.320 30.518 C 185.022 24.946, 180.232 24, 159.318 24 L 141 24 141 71 M 154 52 L 154 68 165.750 67.978 C 179.469 67.952, 184.419 66.350, 187.717 60.868 C 192.081 53.614, 191.393 46.701, 185.769 41.276 C 181.060 36.733, 178.234 36, 165.435 36 L 154 36 154 52 M 218.217 53.617 C 215.862 54.481, 211.632 57.306, 208.817 59.894 L 203.700 64.599 208.688 67.800 C 211.431 69.560, 214.031 71, 214.466 71 C 214.902 71, 216.965 69.458, 219.051 67.573 C 229.213 58.392, 247 64.703, 247 77.488 C 247 79.824, 246.969 79.831, 243.750 78.181 C 239.527 76.017, 222.136 75.841, 217 77.910 C 207.574 81.707, 202.689 88.631, 202.675 98.213 C 202.664 105.676, 206.500 112.178, 213.448 116.474 C 217.575 119.025, 219.566 119.556, 226.140 119.854 C 235.097 120.262, 241.053 118.103, 245.477 112.845 L 248 109.847 248 113.923 L 248 118 254 118 L 260 118 259.956 95.250 C 259.909 70.928, 259.435 67.881, 254.737 61.722 C 253.364 59.922, 249.824 57.127, 246.870 55.511 C 242.152 52.930, 240.346 52.541, 232 52.310 C 225.286 52.124, 221.244 52.507, 218.217 53.617 M 266.489 66.207 C 269.458 72.968, 275.448 86.556, 279.799 96.403 L 287.710 114.306 280.355 130.048 C 276.310 138.706, 273 146.063, 273 146.395 C 273 146.728, 275.826 147, 279.281 147 L 285.562 147 305.714 100.750 L 325.867 54.500 320.296 54.196 C 317.231 54.029, 314.185 54.099, 313.525 54.352 C 312.866 54.605, 308.319 64.734, 303.420 76.862 C 298.521 88.990, 294.180 98.580, 293.772 98.172 C 293.365 97.765, 289.025 87.772, 284.129 75.966 L 275.225 54.500 268.157 54.207 L 261.089 53.914 266.489 66.207 M 0.455 116.500 C 0.455 137.950, 0.587 146.583, 0.749 135.684 C 0.911 124.785, 0.910 107.235, 0.748 96.684 C 0.587 86.133, 0.454 95.050, 0.455 116.500 M 223.209 88.668 C 216.945 91.755, 214.292 97.940, 217.033 103.062 C 218.453 105.715, 225.224 109.005, 229.210 108.978 C 236.635 108.928, 244.548 102.929, 247.004 95.487 C 247.912 92.737, 247.907 91.593, 246.982 90.478 C 244.031 86.923, 229.062 85.783, 223.209 88.668" stroke="none" fill="#ffffff" fill-rule="evenodd"/><path d="M 54 71.500 L 54 82 68.567 82 L 83.135 82 82.464 84.250 C 81.313 88.108, 77.070 94.837, 74.776 96.445 C 73.415 97.397, 72.946 98.318, 73.541 98.868 C 76.392 101.501, 89.334 111, 90.071 111 C 90.985 111, 98.050 101.889, 99.764 98.500 C 103.772 90.572, 106.409 75.733, 105.397 66.791 L 104.742 61 79.371 61 L 54 61 54 71.500" stroke="none" fill="#4285f4" fill-rule="evenodd"/><path d="M 150.250 24.745 C 155.062 24.928, 162.937 24.928, 167.750 24.745 C 172.563 24.561, 168.625 24.411, 159 24.411 C 149.375 24.411, 145.438 24.561, 150.250 24.745 M 159.287 68.740 C 162.469 68.939, 167.419 68.937, 170.287 68.736 C 173.154 68.535, 170.550 68.372, 164.500 68.374 C 158.450 68.376, 156.104 68.541, 159.287 68.740 M 15.250 87.696 C 10.712 91.258, 7 94.658, 7 95.249 C 7 97.105, 12.729 105.339, 16.697 109.187 C 26.520 118.712, 39.992 124.007, 54.355 123.988 C 67.403 123.971, 78.991 120.334, 87.221 113.673 L 89.942 111.471 81.233 104.837 L 72.524 98.202 68.512 100.351 C 65.174 102.139, 62.820 102.500, 54.500 102.500 C 45.991 102.500, 43.860 102.158, 40.209 100.209 C 34.624 97.227, 28.660 91.204, 25.789 85.648 L 23.500 81.218 15.250 87.696 M 227.750 109.662 C 228.438 109.940, 229.563 109.940, 230.250 109.662 C 230.938 109.385, 230.375 109.158, 229 109.158 C 227.625 109.158, 227.063 109.385, 227.750 109.662 M 247.773 112.750 C 248.349 118.555, 248.834 118.978, 248.921 113.750 C 248.964 111.138, 248.640 109, 248.201 109 C 247.761 109, 247.569 110.688, 247.773 112.750" stroke="none" fill="#42ad5e" fill-rule="evenodd"/><path d="" stroke="none" fill="#000000" fill-rule="evenodd"/><path d="M 43 18.500 C 34.071 20.525, 25.085 25.156, 18.622 31.062 C 13.534 35.712, 6.947 44.543, 7.042 46.588 C 7.088 47.576, 23.886 60.556, 24.268 59.899 C 24.396 59.679, 25.579 57.355, 26.898 54.732 C 34.893 38.840, 55.273 33.445, 70.600 43.165 L 75.323 46.161 82.845 38.639 L 90.367 31.117 87.933 29.070 C 76.326 19.302, 58.232 15.046, 43 18.500" stroke="none" fill="#ea4335" fill-rule="evenodd"/><path d="M 141.462 71 C 141.462 97.125, 141.591 107.813, 141.749 94.750 C 141.907 81.688, 141.907 60.313, 141.749 47.250 C 141.591 34.188, 141.462 44.875, 141.462 71 M 15.946 32.750 L 12.500 36.500 16.250 33.054 C 19.740 29.846, 20.460 29, 19.696 29 C 19.529 29, 17.842 30.688, 15.946 32.750 M 195 33.500 C 196.292 34.875, 197.574 36, 197.849 36 C 198.124 36, 197.292 34.875, 196 33.500 C 194.708 32.125, 193.426 31, 193.151 31 C 192.876 31, 193.708 32.125, 195 33.500 M 52.250 38.689 C 53.212 38.941, 54.788 38.941, 55.750 38.689 C 56.712 38.438, 55.925 38.232, 54 38.232 C 52.075 38.232, 51.288 38.438, 52.250 38.689 M 183 38.313 C 183 38.485, 184.463 39.948, 186.250 41.563 L 189.500 44.500 186.563 41.250 C 183.825 38.221, 183 37.540, 183 38.313 M 31.924 47.750 L 29.500 50.500 32.250 48.076 C 34.820 45.810, 35.459 45, 34.674 45 C 34.495 45, 33.258 46.237, 31.924 47.750 M 264.500 54.594 C 269.185 55.347, 275.773 55.442, 275.346 54.750 C 275.091 54.337, 272.096 54.061, 268.691 54.136 C 265.286 54.211, 263.400 54.417, 264.500 54.594 M 316.250 54.716 C 317.762 54.945, 320.238 54.945, 321.750 54.716 C 323.262 54.487, 322.025 54.300, 319 54.300 C 315.975 54.300, 314.738 54.487, 316.250 54.716 M 252.500 60 C 253.495 61.100, 254.535 62, 254.810 62 C 255.085 62, 254.495 61.100, 253.500 60 C 252.505 58.900, 251.465 58, 251.190 58 C 250.915 58, 251.505 58.900, 252.500 60 M 105.232 65 C 105.232 66.925, 105.438 67.713, 105.689 66.750 C 105.941 65.787, 105.941 64.213, 105.689 63.250 C 105.438 62.288, 105.232 63.075, 105.232 65 M 0.232 66 C 0.232 67.925, 0.438 68.713, 0.689 67.750 C 0.941 66.787, 0.941 65.213, 0.689 64.250 C 0.438 63.288, 0.232 64.075, 0.232 66 M 22.300 71 C 22.300 74.025, 22.487 75.263, 22.716 73.750 C 22.945 72.237, 22.945 69.763, 22.716 68.250 C 22.487 66.737, 22.300 67.975, 22.300 71 M 217.405 68.250 L 215.500 70.500 217.750 68.595 C 218.988 67.547, 220 66.535, 220 66.345 C 220 65.545, 219.195 66.136, 217.405 68.250 M 194.924 71.750 L 192.500 74.500 195.250 72.076 C 197.820 69.810, 198.459 69, 197.674 69 C 197.495 69, 196.258 70.237, 194.924 71.750 M 0.232 75 C 0.232 76.925, 0.438 77.713, 0.689 76.750 C 0.941 75.787, 0.941 74.213, 0.689 73.250 C 0.438 72.287, 0.232 73.075, 0.232 75 M 105.195 78.500 C 105.215 80.150, 105.439 80.704, 105.693 79.731 C 105.947 78.758, 105.930 77.408, 105.656 76.731 C 105.382 76.054, 105.175 76.850, 105.195 78.500 M 224.762 76.707 C 226.006 76.946, 227.806 76.937, 228.762 76.687 C 229.718 76.437, 228.700 76.241, 226.500 76.252 C 224.300 76.263, 223.518 76.468, 224.762 76.707 M 232.250 76.689 C 233.213 76.941, 234.787 76.941, 235.750 76.689 C 236.713 76.438, 235.925 76.232, 234 76.232 C 232.075 76.232, 231.287 76.438, 232.250 76.689 M 158.250 80.735 C 160.863 80.941, 165.137 80.941, 167.750 80.735 C 170.363 80.529, 168.225 80.360, 163 80.360 C 157.775 80.360, 155.637 80.529, 158.250 80.735 M 175.750 80.662 C 176.438 80.940, 177.563 80.940, 178.250 80.662 C 178.938 80.385, 178.375 80.158, 177 80.158 C 175.625 80.158, 175.063 80.385, 175.750 80.662 M 207.924 83.750 L 205.500 86.500 208.250 84.076 C 210.820 81.810, 211.459 81, 210.674 81 C 210.495 81, 209.258 82.237, 207.924 83.750 M 230.750 86.706 C 231.988 86.944, 234.012 86.944, 235.250 86.706 C 236.488 86.467, 235.475 86.272, 233 86.272 C 230.525 86.272, 229.512 86.467, 230.750 86.706 M 31.500 94 C 32.495 95.100, 33.535 96, 33.810 96 C 34.085 96, 33.495 95.100, 32.500 94 C 31.505 92.900, 30.465 92, 30.190 92 C 29.915 92, 30.505 92.900, 31.500 94 M 75.405 95.250 L 73.500 97.500 75.750 95.595 C 76.987 94.547, 78 93.535, 78 93.345 C 78 92.545, 77.195 93.136, 75.405 95.250 M 202.158 98 C 202.158 99.375, 202.385 99.938, 202.662 99.250 C 202.940 98.563, 202.940 97.438, 202.662 96.750 C 202.385 96.063, 202.158 96.625, 202.158 98 M 15.500 109 C 16.495 110.100, 17.535 111, 17.810 111 C 18.085 111, 17.495 110.100, 16.500 109 C 15.505 107.900, 14.465 107, 14.190 107 C 13.915 107, 14.505 107.900, 15.500 109 M 208.500 113 C 209.495 114.100, 210.535 115, 210.810 115 C 211.085 115, 210.495 114.100, 209.500 113 C 208.505 111.900, 207.465 111, 207.190 111 C 206.915 111, 207.505 111.900, 208.500 113 M 243.924 113.750 L 241.500 116.500 244.250 114.076 C 246.820 111.810, 247.459 111, 246.674 111 C 246.495 111, 245.258 112.237, 243.924 113.750 M 50.728 124.722 C 52.503 124.943, 55.653 124.946, 57.728 124.730 C 59.802 124.513, 58.350 124.333, 54.500 124.328 C 50.650 124.324, 48.952 124.501, 50.728 124.722 M 273 146.243 C 273 146.659, 276.038 146.939, 279.750 146.864 C 286.745 146.723, 285.967 146.303, 277.750 145.785 C 275.137 145.620, 273 145.826, 273 146.243" stroke="none" fill="#fafafa" fill-rule="evenodd"/></svg>