<svg width="924" height="158" viewBox="0 0 924 158" fill="none" xmlns="http://www.w3.org/2000/svg">
<path d="M495.212 45.9496C490.706 33.0659 478.426 23.8142 464.002 23.8142H463.7C454.323 23.8142 445.873 27.7167 439.858 33.9816C433.832 27.7167 425.382 23.8142 416.016 23.8142H415.714C407.472 23.8142 399.938 26.832 394.151 31.8275V29.2882C393.954 26.7591 391.872 24.7718 389.301 24.7718H367.177C364.471 24.7718 362.286 26.9571 362.286 29.6731V149.82C362.286 152.536 364.471 154.722 367.177 154.722H389.301C391.768 154.722 393.797 152.88 394.12 150.496L394.11 64.2447C394.107 63.9562 394.121 63.6679 394.151 63.3809C394.505 59.5304 397.325 56.3668 401.78 55.9712H405.858C407.721 56.1376 409.293 56.7934 410.531 57.7819C412.456 59.3118 413.528 61.6638 413.528 64.2447L413.612 150.07C413.612 152.786 415.807 154.982 418.503 154.982H440.627C443.24 154.982 445.363 152.9 445.488 150.309L445.477 64.1302C445.467 61.2994 446.778 58.7395 449.078 57.2199C450.212 56.4913 451.576 56.0025 453.147 55.8568H457.227C462.014 56.273 464.907 59.905 464.896 64.1302L464.98 149.841C464.98 152.557 467.176 154.742 469.871 154.742H491.996C494.691 154.742 496.887 152.557 496.887 149.841V57.6571C496.887 51.3713 496.18 48.6969 495.212 45.9496ZM345.43 25.0847H332.776V4.5208C332.776 2.05433 330.778 0.0563202 328.311 0.0563202C328.02 0.0563202 327.739 0.0976198 327.468 0.149834C313.44 4.00043 316.25 23.4301 290.639 25.0847H288.151C287.776 25.0847 287.423 25.1367 287.079 25.2095C284.894 25.6989 283.25 27.6447 283.25 29.9761V52.1009C283.25 54.7962 285.445 56.9919 288.151 56.9919H301.503L301.483 150.81C301.483 153.484 303.647 155.649 306.321 155.649H328.197C330.861 155.649 333.026 153.484 333.026 150.81L333.036 56.9919H345.43C348.126 56.9919 350.321 54.7962 350.321 52.1009V29.9761C350.321 27.2807 348.126 25.0847 345.43 25.0847Z" fill="#00BAF2"/>
<path d="M265.827 25.0847H243.703C241.007 25.0847 238.822 27.2807 238.822 29.9758V75.7245C238.77 78.555 236.48 80.8238 233.639 80.8238H224.377C221.505 80.8238 219.184 78.5134 219.184 75.641L219.101 29.9761C219.101 27.2807 216.905 25.085 214.21 25.085H192.085C189.379 25.085 187.194 27.2807 187.194 29.9761V80.1161C187.194 99.1605 200.774 112.742 219.829 112.742C219.829 112.742 234.128 112.742 234.565 112.825C237.146 113.116 239.155 115.281 239.155 117.945C239.155 120.578 237.188 122.732 234.638 123.055C234.514 123.075 234.399 123.107 234.264 123.128L201.909 123.242C199.203 123.242 197.018 125.438 197.018 128.133V150.248C197.018 152.954 199.203 155.139 201.909 155.139H238.083C257.148 155.139 270.719 141.568 270.719 122.514V29.9761C270.719 27.2807 268.533 25.0847 265.827 25.0847ZM51.6736 65.6247V79.2786C51.6736 82.1401 49.3529 84.4715 46.4911 84.4715L32.4522 84.4818V57.1223H46.4911C49.3529 57.1223 51.6736 59.4324 51.6736 62.3048V65.6247ZM53.6197 25.0794H5.25908C2.60529 25.0794 0.461548 27.2338 0.461548 29.877V51.5545C0.461548 51.5961 0.471873 51.6377 0.471873 51.6793C0.471873 51.7834 0.461548 51.8876 0.461548 51.9811V150.097C0.461548 152.761 2.45956 154.936 4.93665 154.998H27.4774C30.1727 154.998 32.3684 152.813 32.3684 150.107L32.4519 116.483H53.6194C71.3316 116.483 83.6743 104.192 83.6743 86.4069V55.1971C83.6743 37.4118 71.3319 25.0794 53.6197 25.0794ZM143.473 117.567V121.022C143.473 121.303 143.432 121.574 143.39 121.834C143.338 122.078 143.269 122.318 143.182 122.552C142.495 124.488 140.559 125.893 138.259 125.893H129.05C126.177 125.893 123.836 123.707 123.836 121.022V116.849C123.836 116.797 123.825 116.745 123.825 116.693L123.836 105.589V102.113L123.846 102.082C123.856 99.4072 126.177 97.2428 129.05 97.2428H138.259C141.142 97.2428 143.473 99.4178 143.473 102.113L143.473 117.567ZM139.956 25.2066H109.256C106.54 25.2066 104.344 27.2671 104.344 29.7958V38.4024C104.344 38.4543 104.354 38.5168 104.354 38.5688C104.354 38.6313 104.344 38.6935 104.344 38.7561V50.5471C104.344 53.2218 106.675 55.4072 109.548 55.4072H138.78C141.09 55.7715 142.922 57.4574 143.182 60.0903V62.9417C142.922 65.4498 141.111 67.2811 138.905 67.4894H124.429C105.177 67.4894 91.4604 80.2796 91.4604 98.2416V123.967C91.4604 141.826 103.251 154.532 122.368 154.532H162.487C169.688 154.532 175.527 149.079 175.527 142.367V58.4147C175.527 38.059 165.037 25.2066 139.956 25.2066Z" fill="#1F336B"/>
<path d="M533.026 50.9698H538.386C543.662 50.9698 547.481 50.1164 549.843 48.4096C552.195 46.7133 553.382 43.9763 553.382 40.2196C553.382 36.8371 552.268 34.2981 550.052 32.6432C547.835 30.9885 544.38 30.1664 539.686 30.1664H533.026V50.9698ZM559.543 39.9281C559.543 45.1209 557.774 49.1069 554.235 51.8961C550.697 54.685 545.639 56.0792 539.052 56.0792H533.026V76.2272H527.073V25.0151H540.353C553.143 25.0151 559.543 29.979 559.543 39.9281Z" fill="#00BAF2"/>
<path d="M534.336 49.6586H538.385C543.359 49.6586 546.95 48.8883 549.072 47.3482C551.091 45.8909 552.069 43.5601 552.069 40.2196C552.069 37.243 551.154 35.1096 549.27 33.7048C547.283 32.2166 544.067 31.4776 539.686 31.4776H534.336V49.6586ZM538.385 52.2811H531.714V28.8554H539.686C544.712 28.8554 548.354 29.7501 550.831 31.6027C553.391 33.5069 554.692 36.4106 554.692 40.2196C554.692 44.4029 553.318 47.5148 550.612 49.471C548.001 51.3651 543.994 52.2808 538.385 52.2811ZM528.384 74.9159H531.714V54.7682H539.05C545.305 54.7682 550.144 53.457 553.423 50.8654C556.659 48.316 558.23 44.736 558.23 39.9281C558.23 30.7802 552.382 26.3264 540.341 26.3264H528.384V74.9159ZM534.336 77.5384H525.761V23.7039H540.341C553.953 23.7039 560.853 29.1569 560.853 39.9281C560.853 45.5271 558.897 49.8872 555.046 52.9263C551.289 55.8921 545.909 57.3907 539.051 57.3907H534.336V77.5384Z" fill="#54C1F0"/>
<path d="M581.254 70.391C585.926 70.391 589.6 69.1107 592.264 66.5507C594.928 63.9907 596.271 60.4003 596.271 55.7901V51.3047L588.757 51.6274C582.794 51.8357 578.485 52.772 575.852 54.4063C573.209 56.0503 571.898 58.5999 571.898 62.0656C571.898 64.7816 572.71 66.8525 574.354 68.2679C575.998 69.6833 578.298 70.391 581.254 70.391ZM598.206 75.6879L596.718 68.6322H596.354C593.888 71.7335 591.421 73.8356 588.965 74.9386C586.509 76.0313 583.439 76.5936 579.765 76.5936C574.854 76.5936 570.992 75.3239 568.214 72.7846C565.425 70.2556 564.02 66.6548 564.02 61.9717C564.02 51.9708 572.033 46.7257 588.039 46.2469L596.447 45.9658V42.8958C596.447 39.0039 595.615 36.1418 593.939 34.2789C592.264 32.4369 589.589 31.5003 585.916 31.5003C581.784 31.5003 577.111 32.77 571.898 35.299L569.587 29.5542C572.033 28.2327 574.708 27.1919 577.611 26.4323C580.525 25.683 583.439 25.3083 586.363 25.3083C592.274 25.3083 596.645 26.6196 599.496 29.2421C602.348 31.8647 603.774 36.0689 603.774 41.8553V75.6876L598.206 75.6879Z" fill="#00BAF2"/>
<path d="M595.612 51.9958L588.785 52.2767C582.957 52.4849 578.722 53.3903 576.193 54.9617C573.747 56.4916 572.55 58.8123 572.55 62.0697C572.55 64.609 573.279 66.4823 574.788 67.7726C576.307 69.0838 578.482 69.7396 581.25 69.7396C585.736 69.7396 589.285 68.5009 591.813 66.0763C594.332 63.6515 595.612 60.1861 595.612 55.7839V51.9958ZM581.25 71.0509C578.149 71.0509 575.693 70.2806 573.934 68.7611C572.144 67.2315 571.239 64.9733 571.239 62.0697C571.239 58.3751 572.675 55.6175 575.506 53.8481C578.232 52.1519 582.687 51.1843 588.733 50.9654L596.923 50.622V55.7839C596.923 60.5608 595.508 64.3488 592.719 67.013C589.94 69.6874 586.079 71.0509 581.25 71.0509ZM585.913 30.849C589.763 30.849 592.625 31.8481 594.425 33.8462C596.205 35.8132 597.11 38.8623 597.11 42.9002V46.6051L588.056 46.9068C572.332 47.3753 564.683 52.2976 564.683 61.9759C564.683 66.4404 566.015 69.9163 568.647 72.2996C571.302 74.7138 575.037 75.9316 579.762 75.9316C583.332 75.9316 586.339 75.3903 588.691 74.3289C591.043 73.2881 593.447 71.2276 595.841 68.2304L596.038 67.9702H597.256L598.744 75.0262H603.115V41.8491C603.115 36.2814 601.752 32.2021 599.057 29.725C596.34 27.2276 592.073 25.9579 586.371 25.9579C583.519 25.9579 580.626 26.3326 577.774 27.0715C575.131 27.7583 572.654 28.6949 570.417 29.8604L572.248 34.4081C577.275 32.0458 581.875 30.849 585.913 30.849ZM579.762 77.2429C574.705 77.2429 570.667 75.9106 567.763 73.2675C564.849 70.6243 563.371 66.8256 563.371 61.9759C563.371 51.6002 571.666 46.0847 588.015 45.5956L595.799 45.3354V42.9002C595.799 39.2057 595.008 36.448 593.447 34.7205C591.917 33.0243 589.378 32.1602 585.913 32.1602C581.906 32.1602 577.285 33.4093 572.186 35.8861L571.551 36.1878L568.762 29.2569L569.272 28.9758C571.749 27.6335 574.496 26.5715 577.452 25.8016C580.407 25.0316 583.405 24.6464 586.371 24.6464C592.417 24.6464 596.985 26.0305 599.941 28.7675C602.918 31.4944 604.426 35.8964 604.426 41.8491V76.3372H597.683L596.288 69.7499C593.957 72.5388 591.584 74.4746 589.232 75.536C586.704 76.6706 583.519 77.2429 579.762 77.2429Z" fill="#54C1F0"/>
<path d="M611.369 26.1214H619.413L630.268 54.3862C632.651 60.8384 634.129 65.4905 634.701 68.3626H635.065C635.46 66.8227 636.283 64.1895 637.532 60.4637C638.78 56.7379 642.87 45.3009 649.812 26.1214H657.856L636.553 82.5575C634.451 88.1356 631.985 92.0903 629.165 94.4214C626.344 96.7628 622.879 97.9283 618.789 97.9283C616.489 97.9283 614.231 97.6788 612.004 97.1584V91.1434C613.658 91.5074 615.511 91.6948 617.561 91.6948C622.723 91.6948 626.396 88.7911 628.603 83.005L631.36 75.9493L611.369 26.1214Z" fill="#00BAF2"/>
<path d="M612.66 96.6318C614.675 97.06 616.73 97.2762 618.79 97.277C622.713 97.277 626.064 96.1427 628.749 93.9155C631.466 91.6573 633.89 87.7651 635.951 82.3221L656.91 26.781H650.271C643.454 45.6174 639.385 57.0128 638.146 60.6761C636.887 64.4329 636.086 66.9932 635.701 68.523L635.576 69.0121H634.171L634.057 68.4811C633.495 65.661 632.017 60.9988 629.655 54.6192L618.967 26.781H612.338L632.058 75.9534L629.207 83.2487C626.918 89.2843 622.994 92.344 617.562 92.344C615.793 92.344 614.149 92.2089 612.66 91.9487V96.6318ZM618.79 98.5779C616.458 98.5789 614.133 98.3171 611.859 97.7974L611.349 97.6932V90.3357L612.15 90.5021C613.743 90.8561 615.564 91.0331 617.562 91.0331C622.463 91.0331 625.877 88.3271 627.99 82.7699L630.653 75.9637L610.402 25.4697H619.872L630.883 54.1511C632.818 59.4065 634.182 63.5069 634.931 66.4206C635.378 64.891 636.034 62.8615 636.908 60.2599C638.147 56.555 642.278 44.9929 649.188 25.8966L649.344 25.4697H658.804L658.471 26.3544L637.168 82.7906C635.035 88.4415 632.475 92.521 629.582 94.9356C626.657 97.3498 623.025 98.5779 618.79 98.5779Z" fill="#54C1F0"/>
<path d="M729.076 75.6859V43.435C729.076 39.4909 728.233 36.525 726.548 34.558C724.851 32.5809 722.229 31.6027 718.67 31.6027C714.007 31.6027 710.552 32.9449 708.325 35.6093C706.088 38.2941 704.974 42.4362 704.974 48.014V75.6859H697.471V43.435C697.471 39.4909 696.628 36.525 694.931 34.558C693.246 32.5809 690.613 31.6027 687.022 31.6027C682.318 31.6027 678.874 32.9972 676.689 35.8173C674.503 38.6375 673.41 43.2583 673.41 49.6792V75.6862H665.907V26.1178H672.005L673.233 32.903H673.587C675.013 30.4888 677.011 28.6156 679.582 27.2521C682.162 25.8992 685.045 25.2125 688.24 25.2125C695.993 25.2125 701.051 28.0223 703.434 33.6317H703.798C705.276 31.0404 707.42 28.9902 710.219 27.481C713.029 25.9721 716.213 25.2125 719.804 25.2125C725.413 25.2125 729.618 26.6591 732.396 29.5312C735.185 32.4139 736.58 37.0138 736.58 43.3518V75.6856L729.076 75.6859Z" fill="#00BAF2"/>
<path d="M729.732 75.0251H735.924V43.3471C735.924 37.2277 734.582 32.7319 731.928 29.995C729.284 27.258 725.205 25.8635 719.804 25.8635C716.349 25.8635 713.227 26.6128 710.531 28.0489C707.846 29.4955 705.776 31.4729 704.371 33.96L704.183 34.2827H703.007L702.83 33.8871C700.541 28.4858 695.775 25.8632 688.24 25.8632C685.17 25.8632 682.36 26.5296 679.883 27.8303C677.438 29.1312 675.502 30.9419 674.16 33.2317L673.962 33.5644H672.682L671.464 26.7795H666.563V75.0254H672.754V49.6742C672.754 43.1492 673.899 38.3516 676.168 35.417C678.478 32.4405 682.131 30.9419 687.022 30.9419C690.789 30.9419 693.62 32.0139 695.431 34.1264C697.221 36.2182 698.126 39.3508 698.126 43.4406V75.0254H704.318V48.0092C704.318 42.2957 705.494 37.9873 707.815 35.1984C710.167 32.3676 713.82 30.9419 718.68 30.9419C722.416 30.9419 725.226 32.0139 727.037 34.1264C728.827 36.2182 729.732 39.3508 729.732 43.4406V75.0251ZM737.235 76.3363H728.421V43.4403C728.421 39.6732 727.62 36.8215 726.048 34.9798C724.497 33.1685 722.02 32.2529 718.68 32.2529C714.226 32.2529 710.916 33.5332 708.825 36.0412C706.702 38.5909 705.63 42.6182 705.63 48.0089V76.3363H696.815V43.4403C696.815 39.6732 696.014 36.8215 694.432 34.9798C692.881 33.1685 690.384 32.2529 687.022 32.2529C682.558 32.2529 679.249 33.5954 677.209 36.2179C675.127 38.903 674.066 43.4403 674.066 49.6739V76.3363H665.251V25.4676H672.557L673.66 31.5764C675.086 29.5368 676.969 27.8925 679.28 26.6751C681.933 25.27 684.962 24.552 688.24 24.552C695.868 24.552 701.051 27.2577 703.673 32.5756C705.182 30.2133 707.274 28.3191 709.907 26.904C712.8 25.3532 716.13 24.552 719.804 24.552C725.569 24.552 729.971 26.0818 732.875 29.079C735.768 32.0762 737.235 36.8737 737.235 43.3465V76.3363Z" fill="#54C1F0"/>
<path d="M768.326 31.4974C764.35 31.4974 761.176 32.7983 758.803 35.3896C756.441 37.9808 755.047 41.5712 754.63 46.1502H780.533C780.533 41.4152 779.482 37.7935 777.369 35.2751C775.257 32.7567 772.249 31.4974 768.326 31.4974ZM770.365 76.5903C763.039 76.5903 757.253 74.3528 753.017 69.8883C748.782 65.4341 746.669 59.2418 746.669 51.3017C746.669 43.3197 748.636 36.9714 752.57 32.2676C756.504 27.5636 761.78 25.2116 768.419 25.2116C774.622 25.2116 779.544 27.2618 783.155 31.3416C786.777 35.4312 788.588 40.8219 788.588 47.5134V52.259H754.443C754.599 58.0763 756.066 62.4995 758.856 65.5173C761.644 68.5251 765.568 70.0237 770.636 70.0237C775.964 70.0237 781.24 68.9204 786.455 66.6828V73.3746C783.811 74.5298 781.293 75.3416 778.93 75.8407C776.568 76.3405 773.706 76.5903 770.365 76.5903Z" fill="#00BAF2"/>
<path d="M755.353 45.5021H779.871C779.778 41.2662 778.768 37.9673 776.863 35.6987C774.865 33.3154 772.076 32.1602 768.33 32.1602C764.563 32.1602 761.513 33.3989 759.286 35.8338C757.153 38.1755 755.832 41.4122 755.353 45.5021ZM781.193 46.8133H753.906L753.968 46.095C754.405 41.381 755.873 37.6345 758.319 34.9494C760.805 32.2331 764.177 30.849 768.33 30.849C772.43 30.849 775.636 32.2018 777.873 34.8662C780.069 37.4781 781.193 41.2871 781.193 46.1469V46.8133ZM768.413 25.8641C762.024 25.8641 756.851 28.1642 753.073 32.6912C749.254 37.2492 747.318 43.5247 747.318 51.3091C747.318 59.0309 749.4 65.1291 753.5 69.4481C757.58 73.7462 763.251 75.9316 770.359 75.9316C773.648 75.9316 776.489 75.6817 778.789 75.2029C780.995 74.7451 783.357 73.9752 785.803 72.9447V67.6684C780.828 69.6667 775.719 70.6862 770.63 70.6862C765.405 70.6862 761.274 69.0941 758.371 65.9619C755.478 62.8293 753.937 58.2294 753.792 52.2663L753.771 51.6002H787.926V47.5104C787.926 41.0063 786.157 35.73 782.67 31.7856C779.195 27.8621 774.397 25.8641 768.413 25.8641ZM770.359 77.2428C762.877 77.2428 756.882 74.9221 752.543 70.3535C748.203 65.7745 746.007 59.3743 746.007 51.3091C746.007 43.202 748.047 36.656 752.064 31.8481C756.112 27.0193 761.618 24.5529 768.413 24.5529C774.792 24.5529 779.913 26.6969 783.649 30.9115C787.353 35.1055 789.237 40.6836 789.237 47.5104V52.9118H755.124C755.363 58.2191 756.778 62.2986 759.338 65.0668C761.982 67.9183 765.78 69.3753 770.63 69.3753C775.854 69.3753 781.099 68.272 786.198 66.0866L787.114 65.6914V73.8085L786.719 73.9752C784.044 75.1404 781.474 75.9835 779.07 76.4829C776.666 76.9827 773.741 77.2428 770.359 77.2428Z" fill="#54C1F0"/>
<path d="M835.294 75.6859V43.6226C835.294 39.5847 834.378 36.5666 832.536 34.5789C830.694 32.5809 827.822 31.6024 823.898 31.6024C818.716 31.6024 814.917 32.9865 812.502 35.7967C810.088 38.6065 808.892 43.2374 808.892 49.6792V75.6862H801.378V26.1178H807.487L808.704 32.903H809.068C810.609 30.4575 812.763 28.574 815.531 27.2314C818.31 25.8892 821.4 25.2125 824.804 25.2125C830.777 25.2125 835.262 26.6591 838.281 29.5312C841.288 32.4139 842.797 37.0138 842.797 43.3518V75.6856L835.294 75.6859Z" fill="#00BAF2"/>
<path d="M835.951 75.0251H842.143V43.3471C842.143 37.238 840.697 32.7529 837.825 30.0159C834.952 27.2683 830.571 25.8635 824.806 25.8635C821.517 25.8635 818.489 26.5296 815.814 27.8199C813.171 29.1002 811.089 30.9316 809.622 33.2523L809.424 33.5644H808.155L806.937 26.7795H802.035V75.0254H808.227V49.6742C808.227 43.1076 809.497 38.2894 812.005 35.3648C814.534 32.4302 818.541 30.9419 823.9 30.9419C827.99 30.9419 831.06 32.0139 833.017 34.1264C834.963 36.2392 835.951 39.434 835.951 43.6176V75.0251ZM843.455 76.3363H834.64V43.6173C834.64 39.7667 833.766 36.8737 832.049 35.0211C830.352 33.1792 827.605 32.2529 823.9 32.2529C818.936 32.2529 815.273 33.5954 813.004 36.2179C810.704 38.8927 809.539 43.4194 809.539 49.6739V76.3363H800.724V25.4676H808.03L809.143 31.6287C810.694 29.5265 812.733 27.8615 815.252 26.6438C818.093 25.2597 821.319 24.552 824.806 24.552C830.925 24.552 835.608 26.0712 838.73 29.058C841.873 32.0552 843.455 36.8634 843.455 43.3468V76.3363Z" fill="#54C1F0"/>
<path d="M874.228 70.391C875.513 70.3906 876.797 70.2932 878.068 70.0995C879.306 69.9019 880.295 69.7042 881.013 69.4856V75.2301C880.201 75.6254 878.994 75.9481 877.412 76.2083C875.841 76.4582 874.415 76.5933 873.145 76.5933C863.561 76.5933 858.763 71.5355 858.763 61.441V31.9585H851.666V28.3368L858.763 25.2148L861.927 14.6416H866.266V26.1202H880.649V31.9585H866.267V61.1183C866.267 64.1052 866.974 66.3946 868.4 67.9973C869.815 69.5894 871.761 70.391 874.228 70.391Z" fill="#00BAF2"/>
<path d="M852.319 31.305H859.417V61.4431C859.417 71.1839 863.913 75.9295 873.143 75.9295C874.382 75.9295 875.787 75.8044 877.317 75.5549C878.597 75.3466 879.616 75.0967 880.355 74.8056V70.3305C879.741 70.4762 879.002 70.6116 878.17 70.7467C876.9 70.955 875.578 71.0485 874.226 71.0485C871.572 71.0485 869.449 70.1641 867.909 68.426C866.39 66.7091 865.619 64.253 865.619 61.1204V31.3053H879.991V26.778H865.619V15.2988H862.414L859.302 25.6954L852.319 28.7654V31.305ZM873.143 77.2408C863.164 77.2408 858.106 71.9229 858.106 61.4431V32.616H851.008V27.9126L858.22 24.7384L861.436 13.9778H866.931V25.4671H881.302V32.6166H866.931V61.1207C866.931 63.9305 867.586 66.0952 868.887 67.5522C870.188 69.0195 871.936 69.7375 874.226 69.7375C875.506 69.7375 876.765 69.644 877.972 69.4464C879.159 69.2591 880.126 69.0611 880.834 68.8531L881.667 68.6136V75.6487L881.292 75.8154C880.418 76.2419 879.179 76.5853 877.525 76.8558C875.922 77.1057 874.444 77.2408 873.143 77.2408ZM922.886 62.1591C922.886 66.7693 921.169 70.3284 917.724 72.8262C914.29 75.3445 909.472 76.5933 903.259 76.5933C896.692 76.5933 891.561 75.5422 887.888 73.4713V66.4988C890.26 67.7059 892.821 68.6531 895.547 69.3502C898.274 70.0476 900.907 70.391 903.436 70.391C907.359 70.391 910.377 69.7664 912.479 68.5074C914.592 67.2584 915.653 65.3645 915.653 62.8042C915.653 60.8688 914.81 59.2141 913.135 57.8403C911.47 56.4665 908.202 54.8535 903.352 52.9802C898.742 51.2634 895.464 49.7648 893.518 48.4845C891.572 47.2045 890.125 45.7475 889.168 44.1241C888.221 42.4901 887.752 40.5441 887.752 38.2859C887.752 34.2376 889.397 31.0634 892.675 28.7221C895.964 26.3804 900.47 25.2148 906.194 25.2148C911.532 25.2148 916.746 26.3075 921.845 28.4825L919.181 34.581C914.207 32.5308 909.7 31.5006 905.652 31.5006C902.093 31.5006 899.419 32.0626 897.608 33.1762C895.797 34.2895 894.892 35.8297 894.892 37.7864C894.892 39.1183 895.235 40.2526 895.911 41.1789C896.588 42.1155 897.68 43.0002 899.19 43.843C900.699 44.6861 903.592 45.9036 907.869 47.5166C913.749 49.65 917.724 51.8044 919.785 53.9794C921.856 56.1441 922.886 58.8811 922.886 62.1591Z" fill="#54C1F0"/>
<path d="M888.54 73.074C892.078 74.9782 897.022 75.9254 903.256 75.9254C909.302 75.9254 914.037 74.7076 917.346 72.3037C920.624 69.9101 922.227 66.5902 922.227 62.157C922.227 59.0663 921.249 56.4541 919.313 54.4248C917.326 52.3433 913.402 50.2202 907.647 48.1287C903.276 46.4947 900.415 45.2773 898.874 44.4132C897.293 43.5392 896.116 42.5713 895.377 41.5724C894.618 40.5213 894.243 39.2517 894.243 37.7844C894.243 35.5884 895.253 33.8506 897.261 32.6122C899.176 31.4464 901.996 30.8428 905.66 30.8428C909.593 30.8428 914.027 31.8107 918.835 33.7255L920.978 28.8238C916.181 26.8674 911.206 25.8685 906.201 25.8685C900.633 25.8685 896.221 27.0134 893.057 29.2613C889.924 31.4885 888.405 34.4335 888.405 38.2841C888.405 40.4175 888.852 42.2698 889.737 43.7893C890.632 45.3192 892.027 46.7239 893.879 47.9311C895.773 49.1904 899.041 50.6787 903.578 52.3646C908.553 54.2791 911.821 55.9134 913.558 57.3285C915.379 58.8374 916.306 60.669 916.306 62.8025C916.306 65.5917 915.13 67.7041 912.819 69.0779C910.613 70.3789 907.46 71.0553 903.443 71.0553C900.872 71.0553 898.167 70.691 895.388 69.9833C892.984 69.3797 890.684 68.5472 888.54 67.5584V73.074ZM903.256 77.2364C896.595 77.2364 891.319 76.1646 887.562 74.0415L887.229 73.8439V65.4353L888.186 65.9244C890.497 67.0896 893.036 68.0369 895.711 68.7133C898.385 69.3897 900.987 69.7437 903.443 69.7437C907.221 69.7437 910.155 69.1296 912.153 67.9537C914.058 66.8091 914.994 65.1229 914.994 62.8022C914.994 61.054 914.245 59.597 912.726 58.348C911.113 57.0264 907.887 55.4343 903.11 53.5921C898.489 51.8752 895.138 50.335 893.151 49.0237C891.132 47.7022 889.602 46.1514 888.603 44.4445C887.604 42.7276 887.094 40.6567 887.094 38.2838C887.094 34.0379 888.842 30.6451 892.297 28.189C895.69 25.7851 900.363 24.557 906.201 24.557C911.602 24.557 916.951 25.6706 922.102 27.8666L922.716 28.1371L919.521 35.4323L918.928 35.1825C914.048 33.1739 909.583 32.154 905.659 32.154C902.246 32.154 899.655 32.685 897.948 33.7358C896.335 34.7247 895.554 36.0566 895.554 37.7844C895.554 38.9705 895.846 39.98 896.439 40.7919C897.063 41.6453 898.094 42.4881 899.509 43.279C900.976 44.0908 903.859 45.3085 908.105 46.8903C914.12 49.086 918.106 51.2507 920.26 53.5298C922.435 55.809 923.538 58.7123 923.538 62.157C923.538 66.9755 921.717 70.7426 918.116 73.3651C914.578 75.9357 909.583 77.2364 903.256 77.2364Z" fill="#00BAF2"/>
<path d="M533.016 131.958V151.106H543.693C547.825 151.106 550.926 150.316 553.018 148.702C555.109 147.11 556.15 144.602 556.15 141.199C556.15 138.025 555.089 135.684 552.955 134.195C550.811 132.707 547.565 131.958 543.204 131.958H533.016ZM533.016 126.921H542.819C547.013 126.921 550.041 126.255 551.883 124.933C553.725 123.622 554.652 121.395 554.652 118.273C554.652 115.4 553.621 113.33 551.561 112.06C549.51 110.79 546.243 110.145 541.768 110.145H533.016V126.921ZM527.063 105.004H541.518C548.314 105.004 553.226 106.024 556.254 108.053C559.293 110.072 560.812 113.288 560.812 117.68C560.812 120.708 559.959 123.206 558.273 125.193C556.577 127.16 554.111 128.43 550.864 129.023V129.366C558.637 130.699 562.519 134.778 562.519 141.626C562.519 146.194 560.979 149.764 557.888 152.334C554.797 154.894 550.468 156.175 544.921 156.175H527.063V105.004Z" fill="#54C1F0"/>
<path d="M534.327 125.606H542.819C546.722 125.606 549.511 125.024 551.124 123.879C552.612 122.807 553.34 120.976 553.34 118.27C553.34 115.866 552.528 114.201 550.874 113.181C549.042 112.036 545.983 111.464 541.768 111.464H534.327V125.606ZM542.819 128.229H531.704V108.841H541.768C546.544 108.841 549.969 109.528 552.258 110.943C554.714 112.463 555.963 114.939 555.963 118.27C555.963 121.839 554.839 124.441 552.643 126.012C550.551 127.511 547.336 128.229 542.819 128.229ZM534.327 149.792H543.693C547.512 149.792 550.374 149.084 552.227 147.669C553.985 146.316 554.839 144.204 554.839 141.196C554.839 138.449 553.975 136.523 552.196 135.274C550.302 133.942 547.273 133.266 543.204 133.266H534.327V149.792ZM543.693 152.415H531.704V130.643H543.204C547.877 130.643 551.321 131.455 553.705 133.131C556.202 134.879 557.461 137.585 557.461 141.196C557.461 145.015 556.233 147.898 553.819 149.75C551.509 151.52 548.095 152.415 543.693 152.415ZM528.374 154.87H544.921C550.135 154.87 554.214 153.674 557.045 151.322C559.845 149.001 561.208 145.817 561.208 141.623C561.208 135.462 557.753 131.882 550.645 130.654L549.552 130.477V127.927L550.635 127.73C553.559 127.199 555.796 126.064 557.274 124.337C558.773 122.589 559.491 120.414 559.491 117.677C559.491 113.712 558.2 110.933 555.526 109.143C552.726 107.27 548.012 106.312 541.518 106.312H528.374V154.87ZM544.921 157.493H525.752V103.701H541.518C548.647 103.701 553.704 104.762 556.983 106.958C560.396 109.247 562.124 112.837 562.124 117.677C562.124 121.028 561.156 123.838 559.262 126.044C558.158 127.324 556.764 128.354 555.078 129.114C562.207 131.705 563.83 137.169 563.83 141.623C563.83 146.587 562.113 150.531 558.72 153.341C555.401 156.099 550.759 157.493 544.921 157.493ZM587.499 151.024C592.223 151.024 595.928 149.734 598.624 147.142C601.329 144.551 602.672 140.919 602.672 136.257V131.73L595.085 132.063C589.049 132.271 584.699 133.208 582.035 134.863C579.371 136.527 578.039 139.108 578.039 142.605C578.039 145.352 578.871 147.444 580.526 148.88C582.191 150.317 584.512 151.024 587.499 151.024ZM604.639 156.373L603.13 149.234H602.766C600.268 152.377 597.781 154.5 595.293 155.613C592.806 156.727 589.705 157.289 585.99 157.289C581.025 157.289 577.133 156.009 574.313 153.438C571.493 150.879 570.088 147.246 570.088 142.522C570.088 132.406 578.174 127.099 594.357 126.61L602.859 126.339V123.238C602.859 119.304 602.016 116.411 600.32 114.528C598.624 112.654 595.928 111.718 592.203 111.718C588.029 111.718 583.315 112.998 578.039 115.558L575.708 109.751C578.174 108.408 580.88 107.368 583.815 106.597C586.76 105.838 589.705 105.453 592.66 105.453C598.634 105.453 603.057 106.785 605.939 109.439C608.822 112.092 610.258 116.338 610.258 122.187V156.373H604.639Z" fill="#00BAF2"/>
<path d="M602.016 132.416L595.116 132.707C589.226 132.915 584.939 133.831 582.389 135.423C579.902 136.963 578.694 139.326 578.694 142.604C578.694 145.143 579.454 147.079 580.953 148.38C582.483 149.701 584.689 150.368 587.499 150.368C592.026 150.368 595.616 149.119 598.176 146.662C600.726 144.217 602.016 140.72 602.016 136.256V132.416ZM587.499 151.679C584.356 151.679 581.869 150.898 580.1 149.368C578.299 147.818 577.383 145.549 577.383 142.604C577.383 138.878 578.83 136.099 581.692 134.31C584.45 132.593 588.945 131.614 595.064 131.396L603.327 131.052V136.256C603.327 141.085 601.902 144.904 599.081 147.61C596.272 150.315 592.379 151.679 587.499 151.679ZM592.203 111.061C596.105 111.061 598.988 112.081 600.809 114.089C602.599 116.087 603.515 119.168 603.515 123.237V126.983L594.378 127.275C578.476 127.753 570.744 132.738 570.744 142.521C570.744 147.027 572.097 150.545 574.761 152.959C577.435 155.394 581.213 156.632 585.99 156.632C589.59 156.632 592.64 156.081 595.023 155.019C597.395 153.947 599.831 151.876 602.256 148.827L602.453 148.588H603.66L605.17 155.716H609.603V122.186C609.603 116.556 608.219 112.424 605.492 109.916C602.755 107.398 598.436 106.117 592.671 106.117C589.778 106.117 586.864 106.492 583.981 107.231C581.307 107.918 578.809 108.875 576.54 110.062L578.382 114.662C583.482 112.268 588.123 111.061 592.203 111.061ZM585.99 157.944C580.88 157.944 576.801 156.591 573.876 153.927C570.931 151.262 569.432 147.412 569.432 142.521C569.432 132.031 577.81 126.463 594.336 125.963L602.204 125.703V123.237C602.204 119.491 601.402 116.712 599.831 114.964C598.28 113.246 595.71 112.372 592.203 112.372C588.154 112.372 583.482 113.642 578.33 116.15L577.695 116.451L574.885 109.458L575.396 109.177C577.893 107.824 580.672 106.732 583.659 105.961C586.635 105.191 589.674 104.806 592.671 104.806C598.78 104.806 603.39 106.19 606.387 108.948C609.395 111.716 610.914 116.171 610.914 122.186V157.028H604.108L602.693 150.368C600.33 153.188 597.926 155.154 595.564 156.216C593.004 157.35 589.778 157.944 585.99 157.944Z" fill="#54C1F0"/>
<path d="M660.166 156.369V123.973C660.166 119.883 659.24 116.833 657.377 114.825C655.515 112.806 652.611 111.807 648.646 111.807C643.411 111.807 639.571 113.222 637.136 116.063C634.69 118.894 633.473 123.577 633.473 130.092V156.369H625.886V106.281H632.058L633.296 113.139H633.66C635.211 110.662 637.396 108.758 640.196 107.394C642.995 106.042 646.117 105.365 649.562 105.365C655.598 105.365 660.135 106.822 663.184 109.736C666.234 112.64 667.753 117.291 667.753 123.692V156.369L660.166 156.369Z" fill="#00BAF2"/>
<path d="M660.822 155.719H667.097V123.697C667.097 117.515 665.63 112.978 662.726 110.209C659.823 107.42 655.39 106.026 649.562 106.026C646.242 106.026 643.183 106.682 640.477 107.982C637.802 109.283 635.69 111.136 634.212 113.477L634.024 113.789H632.744L631.516 106.942H626.542V155.719H632.817V130.087C632.817 123.437 634.108 118.577 636.637 115.632C639.186 112.655 643.234 111.157 648.646 111.157C652.788 111.157 655.879 112.239 657.856 114.372C659.823 116.506 660.822 119.732 660.822 123.967V155.719ZM668.409 157.03H659.511V123.967C659.511 120.075 658.626 117.151 656.899 115.267C655.182 113.415 652.403 112.468 648.646 112.468C643.63 112.468 639.925 113.821 637.625 116.485C635.305 119.18 634.128 123.77 634.128 130.087V157.03H625.231V105.631H632.609L633.733 111.864C635.294 109.741 637.365 108.035 639.905 106.817C642.787 105.412 646.034 104.715 649.562 104.715C655.744 104.715 660.479 106.234 663.642 109.252C666.806 112.281 668.409 117.14 668.409 123.697V157.03Z" fill="#54C1F0"/>
<path d="M690.833 130.729C692.145 128.866 694.143 126.441 696.817 123.423L713 106.273H722.002L701.708 127.617L723.417 156.371H714.238L696.547 132.685L690.833 137.628V156.371H683.34V85.2612H690.833V122.965C690.833 124.641 690.708 127.232 690.469 130.729H690.833Z" fill="#00BAF2"/>
<path d="M714.561 155.719H722.106L700.855 127.579L720.472 106.942H713.281L697.296 123.863C694.663 126.829 692.665 129.275 691.364 131.117L691.177 131.387H689.761L689.814 130.69C690.053 127.225 690.178 124.634 690.178 122.968V85.9096H683.996V155.719H690.178V137.33L696.651 131.741L714.561 155.719ZM724.739 157.03H713.905L696.442 133.656L691.489 137.933V157.03H682.685V84.5983H691.489V122.969C691.489 124.363 691.406 126.424 691.239 129.067C692.509 127.391 694.216 125.352 696.328 122.979L712.719 105.631H723.532L702.572 127.672L724.739 157.03Z" fill="#54C1F0"/>
</svg>
